<?xml version="1.0" encoding="UTF-8" standalone="no"?>
<svg
   xmlns:dc="http://purl.org/dc/elements/1.1/"
   xmlns:cc="http://creativecommons.org/ns#"
   xmlns:rdf="http://www.w3.org/1999/02/22-rdf-syntax-ns#"
   xmlns:svg="http://www.w3.org/2000/svg"
   xmlns="http://www.w3.org/2000/svg"
   xmlns:sodipodi="http://sodipodi.sourceforge.net/DTD/sodipodi-0.dtd"
   xmlns:inkscape="http://www.inkscape.org/namespaces/inkscape"
   width="124.99742"
   height="38"
   id="svg6199"
   overflow="hidden"
   version="1.1"
   sodipodi:docname="code-logo.svg"
   style="overflow:hidden"
   inkscape:version="0.92.1 r15371">
  <metadata
     id="metadata20">
    <rdf:RDF>
      <cc:Work
         rdf:about="">
        <dc:format>image/svg+xml</dc:format>
        <dc:type
           rdf:resource="http://purl.org/dc/dcmitype/StillImage" />
        <dc:title></dc:title>
      </cc:Work>
    </rdf:RDF>
  </metadata>
  <sodipodi:namedview
     pagecolor="#ffffff"
     bordercolor="#666666"
     borderopacity="1"
     objecttolerance="10"
     gridtolerance="10"
     guidetolerance="10"
     inkscape:pageopacity="0"
     inkscape:pageshadow="2"
     inkscape:window-width="3000"
     inkscape:window-height="1875"
     id="namedview18"
     showgrid="false"
     inkscape:zoom="9.269442"
     inkscape:cx="22.201507"
     inkscape:cy="-0.60420882"
     inkscape:window-x="-13"
     inkscape:window-y="-13"
     inkscape:window-maximized="1"
     inkscape:current-layer="svg6199" />
  <defs
     id="defs6203" />
  <g
     id="g3698"
     transform="scale(0.12273902)"
     style="stroke-width:8.14736843">
    <path
       id="path5610"
       d="m 217.76,205.36 0.08,-6.16 0.96,-11.92 1.92,-11.12 2.88,-10.56 3.84,-9.84 4.72,-9.12 5.68,-8.32 6.56,-7.68 7.36,-6.8 8.32,-6.08 9.12,-5.28 10,-4.4 10.8,-3.6 11.68,-2.72 12.4,-1.76 13.28,-0.96 6.88,-0.08 6.88,0.08 12.96,0.88 12.24,1.76 11.44,2.64 10.56,3.52 9.76,4.32 8.96,5.12 8.16,5.84 7.2,6.72 6.4,7.44 5.52,8.16 4.64,8.88 3.68,9.6 2.8,10.32 1.92,10.96 0.96,11.6 0.08,6.08 -0.16,6.16 -0.96,11.76 -1.92,11.2 -2.88,10.48 -3.76,9.76 -4.72,9.12 -5.68,8.4 -6.48,7.6 -7.36,6.88 -8.24,6.08 -9.12,5.28 -9.92,4.48 -10.72,3.6 -11.52,2.72 -12.32,1.84 -13.12,0.96 -6.88,0.08 -6.88,-0.08 -13.12,-0.88 -12.32,-1.76 -11.52,-2.56 -10.72,-3.44 -9.84,-4.32 -9.04,-5.04 -8.16,-5.92 -7.28,-6.64 -6.4,-7.44 -5.52,-8.16 -4.64,-8.88 -3.76,-9.68 -2.8,-10.32 -1.84,-11.04 -0.96,-11.68 z m 144.48,0 -0.08,-11.44 -1.04,-19.68 -2,-16.32 -2.16,-9.92 -1.76,-5.76 -1.92,-5.04 -2.08,-4.24 -2.4,-3.6 -2.48,-2.88 -2.72,-2.32 -2.88,-1.68 -3.12,-1.04 -3.28,-0.56 h -1.68 -1.68 l -3.12,0.56 -3.04,0.96 -2.88,1.6 -2.64,2.16 -2.48,2.8 -2.24,3.44 -2.08,4.16 -1.84,4.8 -1.68,5.52 -2.08,9.68 -1.92,15.84 -1.04,19.28 -0.08,11.2 0.08,11.36 1.04,19.76 2.08,16.32 2.16,9.92 1.68,5.76 1.92,4.96 2.16,4.32 2.32,3.52 2.56,2.96 2.72,2.24 2.88,1.68 3.04,1.12 3.28,0.48 1.68,0.08 1.76,-0.08 3.2,-0.48 3.04,-1.04 2.88,-1.68 2.64,-2.16 2.48,-2.88 2.32,-3.44 2,-4.16 1.84,-4.88 1.68,-5.6 2,-9.68 1.92,-15.76 0.96,-19.12 z"
       inkscape:connector-curvature="0"
       style="stroke-width:8.14736843;stroke-dashoffset:1" />
    <path
       id="path5612"
       d="m 938.48,210.24 0.4,-8.72 v -8.72 l -0.08,-6.24 -1.04,-11.76 -2,-10.72 -2.88,-9.84 -3.76,-8.96 -4.56,-8.16 -5.36,-7.2 -6.08,-6.48 -6.8,-5.6 -7.44,-4.88 -8.08,-4.08 -8.56,-3.36 -9.12,-2.64 -9.6,-1.92 -10,-1.28 -10.4,-0.64 -5.36,-0.08 -5.6,0.08 -10.8,0.8 -10.56,1.6 -10,2.48 -9.6,3.28 -9.04,4.08 -8.48,4.96 -7.84,5.76 -7.2,6.64 -6.48,7.44 -5.68,8.32 -4.8,9.12 -4,10 -3.04,10.88 -2.08,11.68 -1.12,12.64 -0.08,6.64 0.08,6.48 1.04,12.32 2.08,11.44 3.04,10.64 3.92,9.76 4.8,8.96 5.6,8.08 6.48,7.28 7.12,6.48 7.84,5.6 8.4,4.8 9.12,4 9.6,3.2 10.08,2.4 10.56,1.6 10.96,0.8 5.68,0.08 5.12,-0.08 9.84,-0.56 9.2,-1.2 8.72,-1.76 8.16,-2.24 7.6,-2.88 7.12,-3.44 6.64,-3.92 6.08,-4.48 5.6,-5.04 5.12,-5.6 4.56,-6 4.16,-6.64 3.68,-7.04 3.2,-7.6 2.72,-8 1.2,-4.24 -6.08,-2.4 -2.96,3.44 -6.24,6 -6.72,4.96 -7.12,4.08 -7.6,3.12 -8.08,2.24 -8.56,1.44 -8.96,0.72 h -4.72 l -2.64,-0.08 -5.28,-0.4 -5.12,-0.88 -4.96,-1.28 -4.88,-1.68 -4.64,-2.16 -4.4,-2.56 -4.08,-2.96 -3.92,-3.44 -3.52,-3.92 -3.28,-4.4 -2.8,-4.88 -2.48,-5.36 -2.08,-5.84 -1.6,-6.32 -1.12,-6.8 -0.4,-3.6 -0.56,-12.72 -0.08,-21.36 0.8,-12.96 0.96,-7.44 1.12,-6.48 1.44,-5.6 1.68,-4.8 1.92,-3.92 2.24,-3.28 2.4,-2.48 2.56,-1.92 2.8,-1.36 3.04,-0.8 3.12,-0.4 h 1.68 l 3.28,0.08 4.48,0.96 2.72,1.12 2.48,1.6 2.32,2 2.08,2.64 1.84,3.12 1.68,3.68 1.44,4.4 1.84,7.76 1.68,13.12 0.8,16.32 0.08,9.68 -51.2,23.6 h 125.6 z"
       inkscape:connector-curvature="0"
       style="stroke-width:8.14736843;stroke-dashoffset:1" />
    <path
       id="path5614"
       d="m 620.88,304.48 v -48.8 l -0.4,2.48 -1.28,4.96 -1.76,4.96 -2.24,4.88 -2.72,4.64 -3.12,4.56 -3.44,4.32 -3.84,4.08 -4.16,3.76 -4.4,3.44 -4.72,3.12 -4.8,2.64 -5.04,2.16 -5.12,1.76 -5.2,1.12 -5.28,0.64 -2.56,0.08 -4,-0.08 -7.92,-0.72 -7.68,-1.44 -7.44,-2.24 -7.2,-3.04 -6.8,-3.76 -6.48,-4.56 -6.08,-5.44 -5.6,-6.24 -5.04,-7.12 -4.48,-8 -3.84,-8.88 -3.2,-9.84 -2.48,-10.72 -1.68,-11.68 -0.88,-12.64 v -6.72 l 0.08,-7.28 0.96,-13.6 2,-12.48 2.88,-11.36 3.76,-10.32 4.48,-9.28 5.12,-8.24 5.84,-7.36 6.4,-6.32 6.96,-5.44 7.36,-4.56 7.68,-3.76 8.08,-2.96 8.32,-2.08 8.48,-1.44 8.64,-0.64 4.32,-0.08 4.64,0.08 8.56,0.72 7.76,1.44 6.96,2.08 6.08,2.56 5.36,3.04 4.64,3.44 3.84,3.76 1.68,2 V 48.24 45.04 L 620.24,42 619.04,40.08 618.08,38.96 600.96,19.44 V 13.76 L 699.28,0 v 271.2 2.96 l 0.64,2.8 1.2,1.68 0.96,1.04 17.12,19.12 v 5.68 z m 0,-48.8 V 139.2 l -0.64,-1.2 -1.6,-2.16 -2.08,-1.92 -2.4,-1.76 -2.72,-1.52 -3.04,-1.2 -3.44,-0.8 -3.68,-0.48 h -1.92 -1.76 l -3.44,0.4 -3.44,0.8 -3.36,1.28 -3.28,1.68 -3.12,2.24 -2.96,2.88 -2.8,3.36 -2.56,4.08 -2.4,4.64 -2.08,5.44 -1.76,6.16 -1.52,6.88 -1.2,7.76 -0.8,8.56 -0.4,9.44 v 5.12 4.8 l 0.4,9.04 0.72,8.32 1.04,7.52 1.44,6.88 1.68,6.16 1.92,5.44 2.16,4.88 2.4,4.16 2.64,3.6 2.8,3.04 2.96,2.48 3.12,1.92 3.2,1.44 3.28,0.88 3.44,0.48 1.68,0.08 1.44,-0.08 3.12,-0.4 3.2,-0.8 3.2,-1.28 3.12,-1.68 3.04,-2.24 2.8,-2.72 2.48,-3.28 z"
       inkscape:connector-curvature="0"
       style="stroke-width:8.14736843;stroke-dashoffset:1" />
    <path
       id="path5616"
       d="m 140.4,260.4 3.28,-0.08 6.48,-0.64 6.4,-1.2 6.24,-1.92 5.84,-2.56 5.6,-3.28 5.12,-3.92 4.56,-4.64 2.08,-2.56 5.68,2.8 -1.2,3.92 -2.72,7.52 -3.12,7.04 -3.6,6.72 -4,6.16 -4.4,5.76 -4.88,5.28 -5.2,4.8 -5.68,4.32 -6.16,3.84 -6.48,3.28 -6.96,2.8 -7.36,2.24 -7.76,1.68 -8.24,1.2 -8.56,0.56 -4.48,0.08 -5.2,-0.08 -10.16,-0.8 -9.76,-1.52 -9.44,-2.4 -9.12,-3.12 -8.56,-3.92 -8,-4.8 -7.52,-5.52 -6.88,-6.4 -6.16,-7.2 -5.44,-8 -4.72,-8.88 -3.84,-9.68 -2.96,-10.56 -2,-11.44 -1.04,-12.24 -0.08,-6.48 0.08,-7.12 1.2,-13.28 2.4,-12.24 3.6,-11.28 4.56,-10.24 5.52,-9.36 6.56,-8.32 7.36,-7.44 8.16,-6.56 8.88,-5.6 9.6,-4.8 10.16,-3.92 10.8,-3.12 11.28,-2.32 11.68,-1.52 12.08,-0.72 6.16,-0.08 8.08,0.16 12.96,0.88 8.96,1.12 9.2,1.6 9.44,2.08 9.6,2.56 9.76,3.2 4.88,1.84 -29.68,72.4 v 0 l -37.04,-60.24 -0.72,-1.44 -1.52,-2.08 -1.68,-1.2 -2.08,-0.56 h -1.28 -2.8 l -2.08,0.08 -3.84,0.64 -3.6,1.2 -3.36,1.92 -3.12,2.4 -2.8,2.88 -2.56,3.44 -2.32,3.92 -2.08,4.32 -1.84,4.72 -2.24,7.76 -2.08,11.6 -0.96,12.72 -0.08,6.72 v 5.36 l 0.56,9.92 1.2,9.12 1.76,8.32 2.24,7.44 2.8,6.64 3.2,6 3.6,5.2 4,4.48 4.24,3.84 4.64,3.2 4.88,2.64 5.04,2 5.28,1.44 5.44,0.96 5.52,0.48 z"
       inkscape:connector-curvature="0"
       style="stroke-width:8.14736843;stroke-dashoffset:1" />
    <path
       id="path5618"
       d="m 978.56,98.96 h -2.08 l -4,-0.48 -3.84,-0.72 -3.76,-1.2 -5.28,-2.32 -6.4,-4.32 -5.36,-5.36 -4.32,-6.4 -2.32,-5.28 -1.2,-3.76 -0.8,-3.92 -0.4,-4 v -2.08 -2 l 0.4,-4 0.8,-3.92 1.12,-3.76 2.4,-5.28 4.24,-6.4 5.44,-5.36 6.32,-4.32 5.36,-2.32 3.76,-1.2 3.84,-0.72 4,-0.48 h 2.08 2.08 l 4,0.48 3.84,0.72 3.76,1.2 5.36,2.32 6.32,4.32 5.44,5.36 4.24,6.4 2.4,5.28 1.12,3.76 0.8,3.92 0.4,4 0.08,2 -0.08,2.08 -0.4,4 -0.8,3.92 -1.12,3.76 -2.4,5.28 -4.24,6.4 -5.44,5.36 -6.32,4.32 -5.36,2.32 -3.76,1.2 -3.84,0.72 -4,0.48 z m 0,-73.76 -3.52,0.08 -6.64,1.36 -6.08,2.56 -5.44,3.68 -4.64,4.64 -3.68,5.44 -2.64,6.16 -1.36,6.64 -0.08,3.52 0.08,3.44 1.36,6.72 2.64,6.08 3.68,5.44 4.64,4.64 5.44,3.68 6.08,2.56 6.64,1.44 3.52,0.08 3.52,-0.08 6.64,-1.44 6.08,-2.56 5.44,-3.68 4.64,-4.64 3.68,-5.44 2.64,-6.08 1.36,-6.72 0.08,-3.44 -0.08,-3.52 -1.36,-6.64 -2.64,-6.16 -3.68,-5.44 -4.64,-4.64 -5.44,-3.68 -6.08,-2.56 -6.64,-1.36 z"
       inkscape:connector-curvature="0"
       style="stroke-width:8.14736843;stroke-dashoffset:1" />
    <path
       id="path5620"
       d="m 978.56,56.48 -10.08,-10.08 -9.92,9.84 20,20.16 20.08,-20.16 -9.84,-9.84 z"
       inkscape:connector-curvature="0"
       style="stroke-width:8.14736843;stroke-dashoffset:1" />
  </g>
</svg>
