<svg xmlns="http://www.w3.org/2000/svg" viewBox="0 0 318 90"><g fill="#1E1E1C" fill-rule="nonzero"><path d="M172.1 58s.4-8.5-12.3-8.3h-12.3v17.6h12.3c.2 0 12.3.6 12.3-9.2zM166.4 30.5s.4-7.2-9.2-7.6h-9.3v16.8h8c-.2-.2 10.5-.4 10.5-9.2z"/><path d="M111.2 90H207V0h-95.8v90zm25-77.3H159c20.5 1.8 19.3 17.4 19.3 17.4 0 5.5-3.3 10.6-8.2 12.9 14.5 3.6 14.1 16.1 14.1 16.1 0 18.4-21.7 18.2-21.7 18.2h-26l-.3-64.6zM61.8 58s.4-8.5-12.3-8.3H37.4v17.6h12.3s12 .6 12-9.2zM56 30.5s.4-7.2-9.2-7.6h-9.2v16.8h8c-.2-.2 10.4-.4 10.4-9.2z"/><path d="M.6 90h95.8V0H.6v90zM26 12.7h22.7C69.2 14.5 68 30 68 30c0 5.5-3.3 10.6-8.2 12.9C74.3 46.6 74 59 74 59 73.9 77.5 52 77.3 52 77.3H26V12.7zM221.6 0v90h95.8V0h-95.8zm76.7 72.2s-19.7 11.7-42.7 2.7A33 33 0 0 1 235.7 45s-.8-23.5 24.8-31.3c0 0 6.8-2.7 19.1-1.4 6.2.8 12.3 2.6 17.9 5v12s-11.7-7.2-24.7-7.4c0 0-24.2-.4-25.2 23.1 0 0-.8 21.7 25 23 0 0 11 1.3 25.5-8l.2 12.2z"/></g></svg>