<svg xmlns="http://www.w3.org/2000/svg" viewBox="0 0 563 90"><g fill="#000" fill-rule="nonzero"><path d="M352.57 40.7v-2.08l-.47-2.31-.9-2.08-.93-1.6-1.38-1.61-1.63-1.4-2.05-.93-2.31-.68-2.53-.67h-5.77l-3.01.67-2.98.93-2.53 1.15-2.53 1.16-2.31 1.6-2.3 1.86-2.31 2.05-2.31 2.08-2.08 2.31 9-40.56-17.97 4.61-18 82.97h16.85l3.43-15.47.93-3.91 1.63-4.61 2.31-4.36 2.27-3.94 2.54-3.9 3-3.69 3.01-3.01L324 43l3.01-1.63 2.53-.22H331.14l1.16.22.67.45.26.26.22.67.45.7.25.71.45.9V48.07l-.45.45v1.15l-.25.7V51.3l-8.3 36.87h17.3l8.97-41.26.23-.48v-1.37l.47-.45V40.7zM277.45 88.17l-5.99-32.74-16.14 11.76 3.46 20.98h18.67zM205.31 54.76h-44.94l-.45 2.05v1.63l-.23 1.61-.7 1.6-.45 1.63-.22 1.6-.71 1.61-.67 1.4-.23 1.35-.7 1.64 49.3-16.12zM83.64 9.59l-2.3-.7-4.84-1.16-2.31-.22-2.75-.23-5.06-.7-5.32-.45h-2.53l-10.15.68-9.2 2.08-8.75 2.75-7.62 4.39-6.44 4.84-5.77 6.21L6.22 34l-3.46 7.82-2.08 8.07L0 58.67l.48 5.29.9 4.83 1.63 4.39 2.53 4.14L9 80.55l3.91 3.23 4.84 2.31 5.76 1.6 6.67 1.38 7.37.26h3.01l6.44-.26 3.23-.67 3.46-.23 3.23-.7 3.24-.23 2.98-1.15 2.76-.7 3.01-.93 8.29-37.1-19.12 4.87-4.39 21.4-1.15.48-1.16.22h-1.37l-3.69.71-2.75.45h-2.79l-4.84-.45-3.91-.71-3.23-1.15-2.53-1.6-2.31-2.08-1.6-2.31-1.38-2.31-.93-2.53-.48-3.01-.22-2.98.7-5.54.93-5.54 1.83-5.06 3.01-5.06 3.68-4.14 3.91-3.68 4.84-2.79 5.54-2.3 6.22-1.38 6.91-.7 2.31.47h2.31l2.05.23h2.31l2.3.7 2.31.23 2.31.67 2.3.71 4.14 1.37 4.38-14.96zM562.5.6l-17.97 4.6-4.84 22.5h-3.23l-.7-.45h-3.24l-8.44.7-7.37 1.6-6.66 3.05-5.63 3.68-4.84 4.33-3.9 5.06-3.04 5.63-2.3 6-1.16 6.66-.45 6.66.45 3.46.22 3.24.93 2.8 1.15 2.54 1.6 2.02 1.61 1.6 2.33 1.27 2.31 1.16 2.53.22 3.04.23 3.9-.23 3.92-.93 3.4-1.49 3.71-1.8 3.04-2.3 3.24-2.82 2.53-2.53 2.53-3.03 2.02-2.54 1.86-2.53h.45l-.9 2.3-1.15 2.03-.93 2.31-.93 2.03-.7 1.85-.93 1.74-.7 2.03-.7 1.6-.65 1.63-.7 1.38h16.87l.22-2.02.23-1.6.62-2.31.45-2.3.7-2.31.23-2.03.22-2.3.7-2.31.45-2.3.45-2.03L562.5.59zm-25.31 39.62l-.87 3.94-1.16 3.88-1.6 4.13-2 4.08-2.3 4.39-2.53 4.13-3.04 3.69-3.04 3.03-3.04 2.54-3.23 1.37-3.04.45h-.93l-.7-.22-.93-.23-.7-.7-.7-.7-.23-.7-.22-1.38-.34-1.16-.2-1.38v-1.63l.23-3.9.7-3.92.93-3.9 1.6-3.69 2.02-3.46 2.54-3.23 3.03-2.82 3.72-1.85 3.9-1.38 4.4-.23h3.23l2.3.23.7.45h1.5v.17zM486.93 28.97l-2.3-.23-2.31-.22-4.62-.4-2.53-.22h-2.3l-4.84-.45h-5.06l-8.44.7-7.6 1.6-6.46 3.04-6 3.77-4.6 4.39-3.7 5.06-3.03 5.63-2.3 5.99-1.38 6.66-.23 6.67.23 3.46.45 3.23.92 2.82.93 2.53 1.6 2.02 1.6 1.6 2.34 1.21 2.3 1.16 2.54.22 3.04.23 3.9-.23 3.92-.93 3.63-1.49 3.45-1.85 3.24-2.22 3.04-2.82 2.8-2.53 2.54-3.04 1.86-2.53 2.02-2.53h.23l-.93 2.25-.93 2.03-1.15 2.3-.45 2.03-1.16 1.85-.45 1.6-1.15 2.03-.45 1.6-.67 1.75-.7 1.38h16.59l.22-2.03.45-1.6.7-2.3.23-2.31.7-2.3.23-2.03.45-2.31.7-2.3.45-2.31.45-2.03 7.85-37.1v-.53l.14.03zm-19.35 11.25l-.93 3.9-.93 3.92-1.57 4.13-2.03 4.14-2.3 4.38-2.54 4.14-3.03 3.68-2.82 3.04-3.03 2.53-3.24 1.38-3.04.45h-.92l-.7-.23-.93-.22-.7-.7-.71-.7-.45-.71-.23-1.38-.22-1.15-.42-1.4v-1.64l.45-3.9.45-3.92 1.15-3.9 1.6-3.7 2.28-3.45 2.3-3.23 2.82-2.82 3.74-1.85 3.91-1.38 4.61-.23h3.24l2.3.23.7.45h1.16l.03.14zM417.8 41.82l-.45-2.02-.23-2.3-.93-1.87-1.37-2.02-1.6-1.6-2.31-1.6-2.54-1.47-3.37-.45-3.46-.7-4.39-.45-6.47.45-6.21 1.6-5.77 2.28-5.28 3.23-4.62 3.91-3.88 4.84-3.26 5.63-2.3 5.99-1.16 6.66-.7 7.37.22 3.46.7 3.68 1.38 3.04 1.6 2.53 2.31 2.3 2.53 1.86 3.04 1.38 3.46.93 4.39.7 4.61.23h2.03l5.76-.45 2.53-.45 2.53-.7 2.54-.45 2.8-.7 2.31-1.16 2.31-.45 1.86-.7V72.53l-1.6.7-1.86.46-2.03.7-1.85.7-3.91 1.38-2.03.23-1.86.45h-8.43l-1.86-.48-1.6-.7-1.6-.45-1.16-1.16-.93-.93-.64-1.35-.23-1.6v-4.84l.23-.22v-1.38l7.6-.7 7.08-.7 6.24-1.19 5.63-1.6 4.83-1.86 3.91-2.53 3.24-2.53 2.3-3.23 1.38-3.69.7-4.13-.16-.06zm-17.05 2.34l-.22 1.6-.7 1.6-1.38 1.16-1.6 1.37-2.31.93-2.53 1.16-3.04.45-3.46.45-3.91.7h-4.73l.7-2.3 1.16-2.82.93-1.86 1.86-2.02 1.6-1.86 1.63-1.69 1.86-.92 2.3-1.1 2.3-.45h4.85l.92.22 1.16.7.7.23.45.7.7.7.45.94.23.93v1.15l.08.03zM271.24 54.73L262.8 7.26h-19.69l-49.3 80.88h18.42l10.38-17.74 48.85-15.67h-.22zm-17.97 0h-21.44l9.45-16.14.93-1.38.93-1.38.7-1.6.7-1.38.94-1.15.7-1.38.7-1.38.7-1.15.45-1.6.7-1.16.46 1.38v2.56l.22 1.38v1.35l.45 1.15v1.38l.23 1.38v1.15l.22 1.15 3.04 16.88-.08-.06zM150.24 50.82v-4.39l-1.18-3.9-1.12-3.69-2.03-3.04-2.3-2.53-3.24-2.02-3.46-1.86-4.38-.93-4.9-.7-5.62-.45-6.47.45-6.25 1.6-5.62 2.3-5.06 3.05-4.4 3.9-3.68 4.4-3.03 5.06-2.3 5.06-1.36 5.9-.22 6.47.22 4.84L85 74.25l1.6 3.9 2.31 3.05 2.53 2.53 3.24 2.02 3.68 1.6 4.14.93 4.13.7 5.06.23 6.47-.45 5.77-1.38 5.62-2.3 5.35-3.26 4.61-3.69 3.68-4.61 3.24-4.84 2.3-5.62 1.16-6 .7-6.21-.34-.03zm-17.74 1.16l-.23 3.45-.7 3.69-.93 3.23-1.38 3.24-1.85 3.03-2.03 2.54-2.53 2.3-3.04 1.6-3.23.93-3.69.7-2.3-.22-1.86-.45-2.02-.45-1.16-.7-1.38-1.15-.92-1.16-.96-1.66-.5-1.38-.23-1.85-.45-1.86.45-3.9.7-3.47.93-3.68 1.15-3.23 2.03-3.04 1.85-2.82 3.04-2.3 3.04-2.03 3.23-.92 3.91-.23h2.31l1.6.23 2.03.7 1.15.93 1.38.93.93 1.37.7 1.6.7 1.6.23 2.03v2.37l.03.02z"/></g></svg>