<svg xmlns="http://www.w3.org/2000/svg" viewBox="0 0 470 86"><g fill="#1D1D1B" fill-rule="nonzero"><path d="M53 31H7.3V1H.8v67h6.5V36.8H53V68h6.5V1H53zM79.5 1h6.6v67h-6.6zM111.5 1h-6.7v67h45.1v-5.8h-38.4zM167.6 1H161v67h45.1v-5.8h-38.5zM249 .7L215.7 68h7.4l11-22.5h35.4L280.7 68h7.4L253.8.7H249zm-12.2 38.8l14.5-29.6 15 29.6h-29.5zM369.2 79a18.6 18.6 0 0 1-19.2-5c-6.4-6-11.6-14.8-16.4-22.5-2.5-5-5.7-9.6-9.5-13.7 12.7-1.9 20-8.7 20-18.6 0-8-4.2-13.7-12.5-16.6-4.6-1.4-9.4-2-14.2-1.9h-20.5v67h6.5V38.9h10.8c4 0 8.7 7.7 14.3 16.6 5 8.2 10.6 17.2 17.1 23.2 4.4 4.5 10.3 7 16.6 7.1 3 .2 5.9-.2 8.7-1l.5-.3-1.4-5.8-.8.3zm-53.8-45.9H304V6.8h13.6c4.4-.2 8.8.4 13 1.9a11 11 0 0 1 7.3 10.6c0 6.3-3.7 10.6-10.6 12.6-3.8 1-7.8 1.4-11.8 1.3zM383.2 35.3L358.2 1h-7.7l29.3 40.3v26.9h6.6V41.3L415.1 1h-7.6zM445.5 31.3h-.1c-10.3-1.6-20-3.1-20-12.6 0-6.1 5-12.5 19-12.5 6.8 0 13.6 1.8 19.5 5.3l.5.3 3.2-5-.5-.3C460 2.2 452 0 443.7 0c-15.5 0-25.6 7.3-25.6 18.6-.1 4.2 1.6 8.4 4.8 11.3 4.8 4.2 12.7 5.5 20 6.8 10.3 1.6 19.2 3.2 19.2 11.6 0 10.6-11 14.3-21.2 14.3-9.2 0-16.6-2.1-21.2-6.4l-.6-.5-3.6 4.8.5.5a38.3 38.3 0 0 0 25 7.6c17.1 0 28.2-8 28.2-20 .3-13.7-12.3-15.5-23.7-17.4z"/></g></svg>