<svg id="Layer_1" data-name="Layer 1" xmlns="http://www.w3.org/2000/svg" xmlns:xlink="http://www.w3.org/1999/xlink" viewBox="0 0 249 91.08"><defs><style>.cls-1{fill:none;clip-rule:evenodd;}.cls-2{clip-path:url(#clip-path);}.cls-3{clip-path:url(#clip-path-2);}.cls-4{clip-path:url(#clip-path-3);}.cls-5{clip-path:url(#clip-path-4);}.cls-6{clip-path:url(#clip-path-5);}.cls-7{clip-path:url(#clip-path-6);}</style><clipPath id="clip-path" transform="translate(-296.5 -252.46)"><path class="cls-1" d="M306.64,323.58s.46,5.07-5.14,5.07v9.79s15,2.3,15-14.86v-55h-9.86Z"/></clipPath><clipPath id="clip-path-2" transform="translate(-296.5 -252.46)"><polygon class="cls-1" points="370.5 268.54 409.5 268.54 409.5 278.25 394.87 278.25 394.87 323.54 384.72 323.54 384.72 278.11 370.5 278.11 370.5 268.54"/></clipPath><clipPath id="clip-path-3" transform="translate(-296.5 -252.46)"><path class="cls-1" d="M455.5,295.46a19,19,0,1,1-19-19,19,19,0,0,1,19,19m10-.56a26.61,26.61,0,0,0-17-24.93.67.67,0,0,0-.18-.07c-4.73-2.36-12-2.28-15-2L440,257.46H427.72L420,268.58c-6.94,9.83-12.47,17.63-12.47,27.89a26.7,26.7,0,0,0,8.47,19,28.7,28.7,0,0,0,20.36,8c11.05,0,19.64-4.8,24.94-13.94a28.64,28.64,0,0,0,4.23-14.62"/></clipPath><clipPath id="clip-path-4" transform="translate(-296.5 -252.46)"><path class="cls-1" d="M453.48,294.08c0-5.36-3.39-9.28-4.74-10.62a26.21,26.21,0,0,0-.09,21c5.4-5.26,4.83-10.38,4.83-10.38m50,.38a28.24,28.24,0,0,0-45-22.49,53.21,53.21,0,0,1,6.13,7.16,18.65,18.65,0,1,1-.22,30.49,40.72,40.72,0,0,1-5.8,7.4,28.23,28.23,0,0,0,44.89-22.56"/></clipPath><clipPath id="clip-path-5" transform="translate(-296.5 -252.46)"><path class="cls-1" d="M490.48,294.08c0-5.36-3.39-9.28-4.73-10.62a26.16,26.16,0,0,0-.1,21c5.41-5.26,4.83-10.38,4.83-10.38m50,.38a28.24,28.24,0,0,0-45-22.49,54.69,54.69,0,0,1,6.13,7.16,18.64,18.64,0,1,1-.23,30.49,39.47,39.47,0,0,1-5.79,7.4,28.23,28.23,0,0,0,44.89-22.56"/></clipPath><clipPath id="clip-path-6" transform="translate(-296.5 -252.46)"><path class="cls-1" d="M364,285.43h10.9a28.59,28.59,0,0,0-26.81-17.89c-15.8,0-28.61,12.31-28.61,27.5s12.81,27.5,28.61,27.5c12.92,0,23.84-8.23,27.39-19.53H365a18.88,18.88,0,0,1-16.85,10.07c-10.38,0-18.79-8.09-18.79-18.06s8.41-18,18.79-18A18.94,18.94,0,0,1,364,285.43"/></clipPath></defs><title>JCT600</title><g class="cls-2"><rect y="11.08" width="25" height="80"/></g><g class="cls-3"><rect x="69" y="11.08" width="49" height="65"/></g><g class="cls-4"><rect x="106" width="68" height="76"/></g><g class="cls-5"><rect x="145" y="9" width="67" height="66"/></g><g class="cls-6"><rect x="182" y="9" width="67" height="66"/></g><g class="cls-7"><rect x="18" y="10.08" width="66" height="65"/></g></svg>