<svg xmlns="http://www.w3.org/2000/svg" viewBox="0 0 152 58"><g fill="none" fill-rule="nonzero"><path fill="#000" d="M45.05 17.57c2.33 0 3.57 1.34 3.57 3.93v8.08h-3.37v-7.57c0-1.23-.54-1.89-1.48-1.89-1.17 0-2.02.95-2.02 2.56v6.9H38.4v-7.49c0-1.3-.5-1.96-1.46-1.96-1.1 0-1.94.91-1.94 2.36v7.1h-3.37V17.83h3.15v1.8a3.75 3.75 0 0 1 3.36-2.05c1.6 0 2.68.64 3.31 2.03a4.09 4.09 0 0 1 3.64-2.03l-.03-.02zm12.92 10.12a4.26 4.26 0 0 1-3.89 2.2c-2.56 0-4.12-1.43-4.12-3.6 0-2.76 2.66-4.23 7.94-4.25v-.5c0-1.2-.66-1.8-1.97-1.8-1.42 0-2.26.56-2.45 1.64l-3.2-.35c.55-2.3 2.51-3.5 5.83-3.5 3.7 0 5.15 1.37 5.15 4.6v5.2c-.04.77.07 1.54.34 2.27h-3.4a9.17 9.17 0 0 1-.23-1.9v-.01zm-4.4-1.59c0 .95.65 1.54 1.8 1.54 1.41 0 2.53-1.15 2.53-2.75v-1.05c-2.84.04-4.32.87-4.32 2.26zm9.7-8.26h3.16v1.9a3.78 3.78 0 0 1 3.52-2.2c2.6 0 3.82 1.42 3.82 4.46v7.58h-3.4v-7.37c0-1.42-.53-2.2-1.6-2.2-1.22 0-2.11 1-2.11 2.65v6.92h-3.39V17.84zm17.7 2.06c-1.41 0-2.16 1.28-2.16 3.78s.8 3.82 2.17 3.82c1.07 0 1.89-.87 2.03-2.4l3 .34c-.32 2.73-2.36 4.46-5.2 4.46-3.31 0-5.65-2.5-5.65-6.18 0-3.68 2.36-6.22 5.9-6.22 2.7 0 4.57 1.65 4.94 4.46l-3.09.33c-.2-1.56-.94-2.4-1.92-2.4h-.01zm6.39-6.18h3.38v5.6a3.72 3.72 0 0 1 3.32-1.8c2.6 0 3.82 1.42 3.82 4.46v7.6h-3.41v-7.37c0-1.42-.53-2.2-1.6-2.2-1.22 0-2.11 1-2.11 2.65v6.92h-3.39l-.01-15.86zm17.96 16.2c-3.69 0-6.09-2.5-6.09-6.18 0-3.69 2.57-6.22 6.25-6.22 3.5 0 5.67 2.36 5.67 6.31v.48h-8.27c0 2.05.94 3.17 2.56 3.17a2.3 2.3 0 0 0 2.33-1.75l3.3.27c-.77 2.5-2.87 3.91-5.78 3.91h.03zm2.29-7.53c-.03-1.72-.87-2.63-2.34-2.63-1.35 0-2.24.95-2.33 2.63h4.67zm7 3.52c.29 1.08 1.32 1.7 2.83 1.7 1.3 0 2.03-.55 2.03-1.28 0-1.04-1.02-.99-2.83-1.35-2.93-.57-4.4-1.51-4.4-3.64s1.9-3.84 4.99-3.84c2.54 0 4.25 1.07 4.98 3.06l-2.78.5c-.41-.94-1.17-1.32-2.36-1.32-1.2 0-1.77.4-1.77 1.17 0 1.02 1.2.98 3.41 1.41 2.68.55 3.98 1.47 3.98 3.53 0 2.31-2.05 3.98-5.55 3.98-2.84 0-4.85-1.35-5.42-3.55l2.88-.37zm10.1-5.79h-1.89v-2.29h2l.18-3.27 3.13-.2v3.47h2.44v2.29h-2.44v5.28c0 1.33.25 1.86 1.42 1.86.43 0 .86-.06 1.28-.16v2.56c-.74.16-1.49.24-2.24.25-2.77 0-3.87-1.26-3.87-4.14v-5.65zm12.76 9.8c-3.68 0-6.08-2.5-6.08-6.18 0-3.69 2.56-6.22 6.24-6.22 3.5 0 5.68 2.36 5.68 6.31v.48h-8.27c0 2.05.94 3.17 2.56 3.17a2.3 2.3 0 0 0 2.33-1.75l3.31.27c-.78 2.5-2.89 3.91-5.79 3.91h.02zm2.3-7.53c0-1.72-.87-2.63-2.34-2.63-1.35 0-2.24.95-2.33 2.63h4.67zm5.07-4.55h3.04v2.47c.52-1.9 1.56-2.8 3.25-2.8a3 3 0 0 1 .59.06v3.17c-.25-.02-.47-.04-.7-.04-1.75 0-2.78 1.17-2.78 3.13v5.75h-3.4V17.84zM39.17 44.5a4.12 4.12 0 0 1-3.78 2.33c-2.25 0-3.79-1.41-3.79-3.33 0-2.49 2.23-3.79 6.63-3.79h.94v-.66c0-1.65-.88-2.46-2.74-2.46-1.67 0-2.63.6-2.93 1.9l-1.56-.24c.47-1.97 2.06-3 4.77-3 2.87 0 4.07 1.37 4.07 4.35v4.73c-.03.76.07 1.52.3 2.24h-1.65a7.84 7.84 0 0 1-.25-2.07zm-1.28-3.54c-2.95 0-4.47.88-4.47 2.5 0 1.2.85 2 2.29 2 1.92 0 3.47-1.74 3.47-3.88V41c-.48-.05-.88-.05-1.29-.05zm4.88-9.23h1.62v1.64h-1.62v-1.64zm0 3.87h1.62v11h-1.62V35.57v.02zm3.78-.02h1.57v2.46c.66-1.87 1.69-2.78 3.2-2.78.2 0 .4.01.6.04v1.64h-.28c-2.1 0-3.44 1.57-3.44 4.11v5.52h-1.65v-11zm6.6 0h1.48v2.14c.75-1.6 1.93-2.45 3.38-2.45 2.4 0 4.26 2.2 4.26 5.72 0 3.6-1.89 5.8-4.35 5.8a3.63 3.63 0 0 1-3.16-1.97v5.58h-1.6l-.02-14.82zm4.41 9.82c1.77 0 2.93-1.56 2.93-4.35 0-2.78-1.13-4.3-2.86-4.3-1.54 0-2.87 1.37-2.87 3.38v1.84c0 2.16 1.18 3.43 2.8 3.43zm5.51-4.32c0-3.55 2.01-5.8 4.92-5.8 2.92 0 4.97 2.25 4.97 5.8s-2.04 5.8-4.97 5.8c-2.92 0-4.92-2.27-4.92-5.8zm8.09 0c0-2.8-1.26-4.43-3.17-4.43-1.9 0-3.15 1.6-3.15 4.43 0 2.82 1.27 4.43 3.15 4.43s3.17-1.65 3.17-4.43zm3.12-5.5h1.57v2.46c.66-1.87 1.68-2.78 3.2-2.78.2 0 .4.01.6.04v1.64h-.27c-2.1 0-3.45 1.57-3.45 4.11v5.52H74.3l-.01-11zm7.94 1.2H80.3v-1.2h1.92v-2.6l1.65-.18v2.78h2.61v1.2h-2.6v5.75c0 2.06.19 2.94 1.85 2.94.38 0 .76-.04 1.14-.13v1.37c-.45.11-.91.17-1.38.17-1.3 0-2.2-.38-2.83-1.3-.48-.65-.48-1.67-.48-3.08l.04-5.72z"/><path fill="#FFF" d="M34.09 52.04s-12.65-5.47-19.66-18.53c0 0-3 5.14-2.84 11.19.17 6.93 3.7 15.54 13.81 12.35a23.18 23.18 0 0 0 8.69-5z"/><path fill="#000" d="M19.4 57.54s-6.27-.85-7.43-12.56c-1.14-11.51 15.8-33.05 20.15-39.66 4.73-7.18-1.63-4.5-4.48-3.67C24.78 2.46 7.8 8.17 1.62 23.1c-5.4 13.04 3.42 31.3 17.8 34.44"/></g></svg>