<svg id="Layer_1" data-name="Layer 1" xmlns="http://www.w3.org/2000/svg" viewBox="0 0 74.78 34.8"><title>Park Savings_BW</title><path d="M120.19,296.77h-3.43c.08-1.26.17-2.5.25-3.74l-10.49-1.82c0-1.15-.1-2.35-.15-3.61,3.45-1,6.93-1.56,10.36-2.41h-5.67a9.85,9.85,0,0,1-1.08-.1.84.84,0,0,1-.83-.84c-.06-1-.12-2-.17-3a3.85,3.85,0,0,1,1.53-.86l5.47-1.88a.7.7,0,0,0,.33-.19c-.65-.05-1.3-.09-2-.16s-1.29-.11-1.91-.23-.84-.34-.84-1,0-1.7,0-2.56c0-.57.09-.68.62-.87l4.73-1.61.83-.31a4.82,4.82,0,0,0-.33-2.07l-1.8,2.17-.12-.05c.16-1.22.43-2.42.61-3.69l-3.37-1.42,0-.13c1.16-.27,2.37-.32,3.59-.57.22-1.23.13-2.51.45-3.77l1.63,3.38,3.7-.91-2.66,2.78,1.91,3.15-.07.1-1.24-.61c.09.74.17,1.43.25,2.13.05.41.12.82.16,1.24a1,1,0,0,1-.55,1.08c-.32.17-.65.31-1,.45s-.56.2-.86.31c1.41.17,2.79.31,4.17.5.65.09.73.21.85.87s.29,1.56.43,2.34,0,.91-.68,1.1c-1.34.42-2.68.8-4,1.22a12,12,0,0,0-2,.78c.24,0,.48.06.72.06l5.11.14c.67,0,1.33,0,2,.11.89.12,1,.17,1.19,1.07.14.72.33,1.43.5,2.15s0,1.11-.74,1.34c-1,.28-1.94.5-2.91.71-2.4.53-4.81,1-7.21,1.55l-.84.19a5.88,5.88,0,0,1,3.06,2.23c.66.78,1.37,1.51,2.07,2.26a1.61,1.61,0,0,1,.48,1.35c0,.56-.08,1.12-.13,1.73" transform="translate(-106.37 -261.97)"/><path d="M134.43,280.62V287c-1.21.08-2.35,0-3.48,0-.12-.47-.15-18.22,0-18.9a3.56,3.56,0,0,1,.47-.05c2.41,0,4.82-.05,7.23,0a6.19,6.19,0,0,1,5.29,2.81,5.77,5.77,0,0,1,.89,2.55,7.62,7.62,0,0,1-.22,3,5.35,5.35,0,0,1-3.24,3.64,8.73,8.73,0,0,1-3.11.56c-1.07,0-2.13,0-3.19,0h-.61m0-3c1,0,1.95,0,2.9,0a12.59,12.59,0,0,0,1.73-.22,2.09,2.09,0,0,0,1.32-.82,3.67,3.67,0,0,0,.69-3.1,2.62,2.62,0,0,0-2.6-2.26c-1.33-.08-2.68,0-4,0Z" transform="translate(-106.37 -261.97)"/><path d="M175.54,278.73l5.5,8.16a16.83,16.83,0,0,1-3.89.1c-1.29-1.93-2.6-3.9-4-5.9l-.32.25c-.4.4-.8.81-1.21,1.2a1.07,1.07,0,0,0-.35.86c0,1.17,0,2.35,0,3.52a12.67,12.67,0,0,1-3.14,0c-.12-.48-.12-18.32,0-18.83h3.13V275c0,1.14,0,2.29,0,3.56a5.18,5.18,0,0,0,.48-.42l4.24-4.2a1.25,1.25,0,0,1,.95-.43h3.13a2.08,2.08,0,0,1,.43.11l-5,5.07" transform="translate(-106.37 -261.97)"/><path d="M149.05,277.74l-3.09-.21a1.33,1.33,0,0,1,0-.94,4.14,4.14,0,0,1,2.83-3,7.72,7.72,0,0,1,2.39-.39,9.92,9.92,0,0,1,3.43.37,6.4,6.4,0,0,1,1.37.66,3.13,3.13,0,0,1,1.34,2.8c0,2.25,0,4.51,0,6.77,0,.45,0,.91,0,1.36a2.8,2.8,0,0,0,.33,1.48,2.14,2.14,0,0,1,.12.36h-3.67c-.06-.27-.12-.56-.19-.84-.42.21-.83.43-1.25.63a5.8,5.8,0,0,1-3,.58,4.92,4.92,0,0,1-3.48-1.56,4,4,0,0,1,.48-5.78,6.45,6.45,0,0,1,2.83-1.25c1.22-.26,2.44-.53,3.65-.81a7.49,7.49,0,0,0,.84-.27c.09-1.34-.68-1.83-1.81-1.93a4.82,4.82,0,0,0-1.14,0c-1.24.17-1.71.64-2,2m5,2.73a.37.37,0,0,0-.14,0,14.87,14.87,0,0,1-3.29.78,2.56,2.56,0,0,0-1.44.62,1.43,1.43,0,0,0,.37,2.43,3.35,3.35,0,0,0,.54.16,3.53,3.53,0,0,0,2.11-.14,2.32,2.32,0,0,0,1.83-1.88,16,16,0,0,0,0-2" transform="translate(-106.37 -261.97)"/><path d="M162.22,287h-3l-.06-.06s0,0,0,0a2.85,2.85,0,0,1,0-.4q0-6.35,0-12.69a1.64,1.64,0,0,1,.07-.21,22.29,22.29,0,0,1,3.06,0v1.56a5.14,5.14,0,0,1,1.86-1.46,4.93,4.93,0,0,1,2.27-.38,10.29,10.29,0,0,1,0,3.28c-.38.05-.77.1-1.15.17a3.29,3.29,0,0,0-2.91,3.27c-.07,2.14-.07,4.28-.1,6.42V287" transform="translate(-106.37 -261.97)"/><path d="M134.44,291.23a1.3,1.3,0,0,0-.32-.34,1.44,1.44,0,0,0-.41-.21,1.41,1.41,0,0,0-.47-.07,1.52,1.52,0,0,0-.76.17,1.37,1.37,0,0,0-.53.45,1.83,1.83,0,0,0-.3.63,2.68,2.68,0,0,0,0,1.45,1.8,1.8,0,0,0,.3.64,1.57,1.57,0,0,0,.53.45,1.64,1.64,0,0,0,.76.17,1.29,1.29,0,0,0,.57-.12,1.14,1.14,0,0,0,.44-.31,1.51,1.51,0,0,0,.29-.45,1.78,1.78,0,0,0,.15-.57h.43a2.43,2.43,0,0,1-.2.75,1.69,1.69,0,0,1-.39.57,1.58,1.58,0,0,1-.56.36,2.2,2.2,0,0,1-1.66-.07,2,2,0,0,1-.66-.51,2.12,2.12,0,0,1-.4-.74,3,3,0,0,1-.13-.89,2.9,2.9,0,0,1,.13-.89,2.26,2.26,0,0,1,.4-.75,2,2,0,0,1,.66-.52,2.12,2.12,0,0,1,.93-.19,2.18,2.18,0,0,1,.63.09,1.86,1.86,0,0,1,.56.29,1.61,1.61,0,0,1,.41.45,1.44,1.44,0,0,1,.22.63h-.43A1.5,1.5,0,0,0,134.44,291.23Z" transform="translate(-106.37 -261.97)"/><path d="M136.09,290.33v1.82h0a1,1,0,0,1,.41-.48,1.16,1.16,0,0,1,.63-.18,1.55,1.55,0,0,1,.57.09.84.84,0,0,1,.37.25,1,1,0,0,1,.2.39,2.14,2.14,0,0,1,.05.52v2.1h-.39v-2a2.34,2.34,0,0,0,0-.39,1,1,0,0,0-.13-.31.67.67,0,0,0-.26-.21,1,1,0,0,0-.4-.08.93.93,0,0,0-.42.09.94.94,0,0,0-.32.23,1,1,0,0,0-.2.36,1.23,1.23,0,0,0-.08.44v1.9h-.4v-4.51Z" transform="translate(-106.37 -261.97)"/><path d="M139.45,291.58v.77h0a1.21,1.21,0,0,1,1.23-.81v.4a1.12,1.12,0,0,0-.49.07,1.23,1.23,0,0,0-.38.24,1.09,1.09,0,0,0-.25.38,1.19,1.19,0,0,0-.09.47v1.74h-.39v-3.26Z" transform="translate(-106.37 -261.97)"/><path d="M141.48,290.33V291h-.4v-.64Zm0,1.25v3.26h-.4v-3.26Z" transform="translate(-106.37 -261.97)"/><path d="M144.11,292.22a.68.68,0,0,0-.18-.23.84.84,0,0,0-.27-.13,1.65,1.65,0,0,0-.32,0,1.24,1.24,0,0,0-.27,0,.77.77,0,0,0-.25.1.42.42,0,0,0-.18.17.44.44,0,0,0-.07.26.41.41,0,0,0,.06.23.61.61,0,0,0,.17.15.91.91,0,0,0,.22.11l.22.06.53.12a1.89,1.89,0,0,1,.34.09,1.49,1.49,0,0,1,.3.18,1.09,1.09,0,0,1,.21.26.89.89,0,0,1,.08.38.84.84,0,0,1-.12.45,1,1,0,0,1-.31.3,1.32,1.32,0,0,1-.42.17,2.4,2.4,0,0,1-.46.05,1.51,1.51,0,0,1-.93-.27,1.2,1.2,0,0,1-.4-.87h.39a.78.78,0,0,0,.3.6,1,1,0,0,0,.66.21l.3,0a1,1,0,0,0,.29-.11.67.67,0,0,0,.22-.19.55.55,0,0,0,.08-.29.43.43,0,0,0-.06-.24.52.52,0,0,0-.16-.17,1.23,1.23,0,0,0-.23-.11l-.26-.07-.51-.12-.36-.11a1.17,1.17,0,0,1-.29-.17.65.65,0,0,1-.19-.24.73.73,0,0,1-.07-.35.82.82,0,0,1,.11-.42.78.78,0,0,1,.29-.28,1.34,1.34,0,0,1,.39-.16,2.18,2.18,0,0,1,.43-.05,1.65,1.65,0,0,1,.46.06,1,1,0,0,1,.37.2.93.93,0,0,1,.26.33,1.24,1.24,0,0,1,.11.46h-.4A.75.75,0,0,0,144.11,292.22Z" transform="translate(-106.37 -261.97)"/><path d="M146.57,291.58v.34h-.67v2.19a.66.66,0,0,0,.06.31q0,.1.27.12a2,2,0,0,0,.34,0v.34h-.36a.79.79,0,0,1-.55-.15.76.76,0,0,1-.15-.58v-2.22h-.57v-.34h.57v-1h.39v1Z" transform="translate(-106.37 -261.97)"/><path d="M147.51,291.58v.55h0a1.1,1.1,0,0,1,1.06-.64,1,1,0,0,1,.58.16.7.7,0,0,1,.35.48,1,1,0,0,1,.43-.48,1.18,1.18,0,0,1,.61-.16q1.08,0,1.08,1.14v2.21h-.4v-2.19a1,1,0,0,0-.17-.61.7.7,0,0,0-.6-.22.94.94,0,0,0-.43.1.84.84,0,0,0-.27.26,1.15,1.15,0,0,0-.14.38,2.12,2.12,0,0,0,0,.44v1.84h-.4v-2.21a1.55,1.55,0,0,0,0-.31.89.89,0,0,0-.12-.26.51.51,0,0,0-.21-.17.63.63,0,0,0-.32-.07.87.87,0,0,0-.44.1.81.81,0,0,0-.3.25,1,1,0,0,0-.18.38,2.26,2.26,0,0,0-.05.47v1.82h-.4v-3.26Z" transform="translate(-106.37 -261.97)"/><path d="M152.48,292.09a.91.91,0,0,1,.27-.34,1.12,1.12,0,0,1,.41-.2,2.26,2.26,0,0,1,.94,0,1.13,1.13,0,0,1,.39.15,1,1,0,0,1,.28.32,1.21,1.21,0,0,1,.1.54v1.72a.21.21,0,0,0,.24.24.23.23,0,0,0,.12,0v.33l-.12,0H155a.55.55,0,0,1-.24,0,.33.33,0,0,1-.14-.12.48.48,0,0,1-.07-.18,1.62,1.62,0,0,1,0-.23h0l-.22.28a1.64,1.64,0,0,1-.25.21,1.25,1.25,0,0,1-.31.12,1.58,1.58,0,0,1-.41.05,1.54,1.54,0,0,1-.43-.06.84.84,0,0,1-.34-.17.85.85,0,0,1-.24-.29,1.14,1.14,0,0,1-.08-.43.84.84,0,0,1,.15-.53.94.94,0,0,1,.4-.3,2.86,2.86,0,0,1,.56-.14l.64-.08a.78.78,0,0,0,.22,0,.34.34,0,0,0,.15-.06.31.31,0,0,0,.1-.13.67.67,0,0,0,0-.22.81.81,0,0,0-.07-.33.58.58,0,0,0-.18-.2.81.81,0,0,0-.27-.11,1.87,1.87,0,0,0-.34,0,1,1,0,0,0-.61.18.73.73,0,0,0-.26.58h-.39A1.22,1.22,0,0,1,152.48,292.09Zm2,1a.19.19,0,0,1-.14.1l-.19,0-.52.07a3.22,3.22,0,0,0-.49.11.79.79,0,0,0-.36.2.45.45,0,0,0-.14.37.53.53,0,0,0,.06.26.65.65,0,0,0,.16.21.56.56,0,0,0,.23.12.86.86,0,0,0,.27.05,1.31,1.31,0,0,0,.44-.07,1,1,0,0,0,.36-.2,1.08,1.08,0,0,0,.24-.32.88.88,0,0,0,.1-.43v-.52Z" transform="translate(-106.37 -261.97)"/><path d="M157.54,292.22a.68.68,0,0,0-.18-.23.84.84,0,0,0-.27-.13,1.65,1.65,0,0,0-.32,0,1.24,1.24,0,0,0-.27,0,.69.69,0,0,0-.25.1.42.42,0,0,0-.18.17.44.44,0,0,0-.07.26.41.41,0,0,0,.06.23.61.61,0,0,0,.17.15.91.91,0,0,0,.22.11l.22.06.53.12a2.14,2.14,0,0,1,.34.09,1.19,1.19,0,0,1,.29.18.92.92,0,0,1,.22.26.89.89,0,0,1,.08.38.84.84,0,0,1-.12.45,1,1,0,0,1-.31.3,1.32,1.32,0,0,1-.42.17,2.4,2.4,0,0,1-.46.05,1.51,1.51,0,0,1-.93-.27,1.16,1.16,0,0,1-.4-.87h.39a.78.78,0,0,0,.3.6,1,1,0,0,0,.66.21l.3,0a1,1,0,0,0,.29-.11.67.67,0,0,0,.22-.19.55.55,0,0,0,.08-.29.43.43,0,0,0-.06-.24.52.52,0,0,0-.16-.17,1.23,1.23,0,0,0-.23-.11l-.26-.07-.51-.12-.36-.11a1.17,1.17,0,0,1-.29-.17.57.57,0,0,1-.19-.24.73.73,0,0,1-.07-.35.82.82,0,0,1,.11-.42.78.78,0,0,1,.29-.28,1.23,1.23,0,0,1,.39-.16,2.18,2.18,0,0,1,.43-.05,1.65,1.65,0,0,1,.46.06,1,1,0,0,1,.37.2,1.06,1.06,0,0,1,.26.33,1.08,1.08,0,0,1,.1.46h-.39A.75.75,0,0,0,157.54,292.22Z" transform="translate(-106.37 -261.97)"/><path d="M160.84,293.94a1,1,0,0,0,.31.37,1.42,1.42,0,0,0,.47.2,2.72,2.72,0,0,0,.58.06,1.89,1.89,0,0,0,.39-.05,1.68,1.68,0,0,0,.39-.16,1,1,0,0,0,.3-.29.7.7,0,0,0,.12-.42.57.57,0,0,0-.09-.32.73.73,0,0,0-.22-.24,1.4,1.4,0,0,0-.3-.15,2.33,2.33,0,0,0-.32-.1l-1-.25a2.78,2.78,0,0,1-.38-.12,1,1,0,0,1-.32-.21.84.84,0,0,1-.22-.3,1.06,1.06,0,0,1-.09-.45,1.55,1.55,0,0,1,.06-.39,1,1,0,0,1,.24-.41,1.36,1.36,0,0,1,.48-.33,1.89,1.89,0,0,1,.77-.14,2.25,2.25,0,0,1,.64.09,1.75,1.75,0,0,1,.53.26,1.39,1.39,0,0,1,.36.44,1.34,1.34,0,0,1,.14.61h-.43a1.07,1.07,0,0,0-.12-.45.94.94,0,0,0-.27-.32,1.2,1.2,0,0,0-.39-.2,1.63,1.63,0,0,0-.45-.06,2,2,0,0,0-.43,0,1.44,1.44,0,0,0-.36.15,1,1,0,0,0-.25.28.87.87,0,0,0-.09.42.78.78,0,0,0,.05.28.7.7,0,0,0,.15.19.83.83,0,0,0,.22.14l.26.08,1.1.27a2.18,2.18,0,0,1,.45.16,1.51,1.51,0,0,1,.37.22.9.9,0,0,1,.25.33,1.14,1.14,0,0,1,.09.48,1.64,1.64,0,0,1,0,.2,1.14,1.14,0,0,1-.08.27,1.05,1.05,0,0,1-.17.28,1,1,0,0,1-.3.27,1.78,1.78,0,0,1-.48.18,2.64,2.64,0,0,1-.68.08,2.94,2.94,0,0,1-.74-.09,1.75,1.75,0,0,1-.58-.29,1.09,1.09,0,0,1-.36-.48,1.58,1.58,0,0,1-.12-.71h.43A1.28,1.28,0,0,0,160.84,293.94Z" transform="translate(-106.37 -261.97)"/><path d="M164.51,292.09a.93.93,0,0,1,.28-.34,1.08,1.08,0,0,1,.4-.2,2.12,2.12,0,0,1,.52-.06,2.09,2.09,0,0,1,.43,0,1.16,1.16,0,0,1,.38.15.87.87,0,0,1,.28.32,1.2,1.2,0,0,1,.11.54v1.72a.21.21,0,0,0,.23.24.27.27,0,0,0,.13,0v.33l-.13,0H167a.55.55,0,0,1-.24,0,.44.44,0,0,1-.15-.12.48.48,0,0,1-.06-.18,1.52,1.52,0,0,1,0-.23h0a1.6,1.6,0,0,1-.22.28,1.21,1.21,0,0,1-.24.21,1.43,1.43,0,0,1-.31.12,1.73,1.73,0,0,1-.42.05,1.42,1.42,0,0,1-.42-.06.88.88,0,0,1-.35-.17.73.73,0,0,1-.23-.29,1,1,0,0,1-.09-.43.84.84,0,0,1,.15-.53,1,1,0,0,1,.4-.3,3,3,0,0,1,.57-.14l.63-.08a.73.73,0,0,0,.22,0,.38.38,0,0,0,.16-.06.64.64,0,0,0,.1-.13.69.69,0,0,0,0-.22.67.67,0,0,0-.07-.33.49.49,0,0,0-.18-.2.81.81,0,0,0-.27-.11,1.69,1.69,0,0,0-.33,0,1,1,0,0,0-.62.18.72.72,0,0,0-.25.58h-.4A1.22,1.22,0,0,1,164.51,292.09Zm2,1a.24.24,0,0,1-.15.1l-.19,0-.52.07a2.84,2.84,0,0,0-.48.11.88.88,0,0,0-.37.2.48.48,0,0,0-.14.37.53.53,0,0,0,.06.26.65.65,0,0,0,.16.21.72.72,0,0,0,.23.12.87.87,0,0,0,.28.05,1.25,1.25,0,0,0,.43-.07,1,1,0,0,0,.36-.2,1,1,0,0,0,.25-.32,1,1,0,0,0,.09-.43v-.52Z" transform="translate(-106.37 -261.97)"/><path d="M167.78,291.58l1,2.86h0l1-2.86h.41L169,294.84h-.43l-1.25-3.26Z" transform="translate(-106.37 -261.97)"/><path d="M171,290.33V291h-.4v-.64Zm0,1.25v3.26h-.4v-3.26Z" transform="translate(-106.37 -261.97)"/><path d="M172.18,291.58v.57h0a1,1,0,0,1,.41-.48,1.17,1.17,0,0,1,.64-.18,1.62,1.62,0,0,1,.57.09.86.86,0,0,1,.36.25.85.85,0,0,1,.2.39,2.12,2.12,0,0,1,.06.52v2.1H174v-2a1.61,1.61,0,0,0,0-.39.79.79,0,0,0-.13-.31.61.61,0,0,0-.26-.21.92.92,0,0,0-.4-.08.93.93,0,0,0-.42.09.94.94,0,0,0-.32.23,1.25,1.25,0,0,0-.2.36,1.5,1.5,0,0,0-.08.44v1.9h-.4v-3.26Z" transform="translate(-106.37 -261.97)"/><path d="M177.85,295.22a1.31,1.31,0,0,1-.25.5,1.08,1.08,0,0,1-.44.3,1.73,1.73,0,0,1-.68.11,2.61,2.61,0,0,1-.48-.05,1.57,1.57,0,0,1-.42-.18,1,1,0,0,1-.3-.31.89.89,0,0,1-.15-.44h.4a.68.68,0,0,0,.12.3.63.63,0,0,0,.23.2.86.86,0,0,0,.28.11,1.17,1.17,0,0,0,.32,0,1,1,0,0,0,.81-.32,1.47,1.47,0,0,0,.24-.91v-.44h0a1.15,1.15,0,0,1-.41.49,1.11,1.11,0,0,1-.63.18,1.47,1.47,0,0,1-.66-.13,1.25,1.25,0,0,1-.46-.35,1.43,1.43,0,0,1-.26-.54,2.27,2.27,0,0,1-.09-.65,2.19,2.19,0,0,1,.1-.63,1.6,1.6,0,0,1,.29-.53,1.25,1.25,0,0,1,.46-.35,1.38,1.38,0,0,1,.62-.13,1.29,1.29,0,0,1,.35.05,1.11,1.11,0,0,1,.29.14,1.21,1.21,0,0,1,.24.21,1,1,0,0,1,.16.26h0v-.57h.4v3A2.57,2.57,0,0,1,177.85,295.22Zm-.91-.86a1.15,1.15,0,0,0,.33-.29,1.35,1.35,0,0,0,.19-.42,1.51,1.51,0,0,0,.07-.48,2,2,0,0,0-.06-.48,1.09,1.09,0,0,0-.18-.43,1,1,0,0,0-.32-.32,1,1,0,0,0-.49-.12.9.9,0,0,0-.48.12,1,1,0,0,0-.34.31,1.4,1.4,0,0,0-.19.43,2,2,0,0,0-.06.49,1.86,1.86,0,0,0,.06.48,1.36,1.36,0,0,0,.2.42,1.15,1.15,0,0,0,.33.29,1.06,1.06,0,0,0,.48.11A1,1,0,0,0,176.94,294.36Z" transform="translate(-106.37 -261.97)"/><path d="M180.56,292.22a.71.71,0,0,0-.19-.23.75.75,0,0,0-.27-.13,1.55,1.55,0,0,0-.32,0,1.24,1.24,0,0,0-.27,0,.64.64,0,0,0-.24.1.52.52,0,0,0-.19.17.53.53,0,0,0-.07.26.42.42,0,0,0,.07.23.5.5,0,0,0,.17.15.76.76,0,0,0,.22.11l.22.06.53.12.33.09a1.09,1.09,0,0,1,.3.18.77.77,0,0,1,.29.64.94.94,0,0,1-.11.45,1.11,1.11,0,0,1-.31.3,1.42,1.42,0,0,1-.42.17,2.49,2.49,0,0,1-.46.05,1.51,1.51,0,0,1-.93-.27,1.2,1.2,0,0,1-.41-.87h.4a.77.77,0,0,0,.29.6,1.05,1.05,0,0,0,.67.21l.3,0a.86.86,0,0,0,.28-.11.59.59,0,0,0,.22-.19.48.48,0,0,0,.09-.29.43.43,0,0,0-.06-.24.65.65,0,0,0-.16-.17l-.23-.11-.26-.07-.52-.12-.36-.11a1.1,1.1,0,0,1-.28-.17.59.59,0,0,1-.2-.24.88.88,0,0,1-.06-.35.73.73,0,0,1,.11-.42.83.83,0,0,1,.28-.28,1.29,1.29,0,0,1,.4-.16,2.1,2.1,0,0,1,.43-.05,1.7,1.7,0,0,1,.46.06,1,1,0,0,1,.37.2.9.9,0,0,1,.25.33,1.08,1.08,0,0,1,.11.46h-.4A.76.76,0,0,0,180.56,292.22Z" transform="translate(-106.37 -261.97)"/></svg>