<svg id="Layer_1" data-name="Layer 1" xmlns="http://www.w3.org/2000/svg" viewBox="0 0 125.59 40"><title>SwintonLogBW</title><path d="M5.42,21.28l0,.1a1.91,1.91,0,0,0,2.11,1.86c1.24,0,2-.62,2-1.71,0-1.6-1.57-1.53-4-2.29-3.39-1.06-5-2.88-5-5.83C.48,9.59,3.29,7,8,7,12,7,14.6,9.3,14.82,13L9.59,13c-.22-1.28-.69-1.91-1.71-1.91a1.59,1.59,0,0,0-1.79,1.6C6.09,14,7.3,14.36,9.3,14.9c4,1.1,6,2.62,6,5.86,0,3.94-3.11,6.63-7.85,6.63C3.09,27.39.4,25.25,0,21.28Z" transform="translate(0 0)"/><polygon points="33.19 27.39 29.75 15.56 26.27 27.39 21.25 27.39 15.26 7.39 21.09 7.39 24.1 19.09 27.2 7.39 32.21 7.39 35.45 19.09 38.42 7.39 44.25 7.39 38.2 27.39 33.19 27.39"/><polygon points="46.22 7.39 51.88 7.39 51.88 27.39 46.22 27.39 46.22 7.39"/><path d="M54,27.39v-20h5.72v2.69A6,6,0,0,1,65.23,7c4,0,6.7,2.7,6.7,7.18l-.05,13.25H66.27v-11c0-2.73-.68-3.81-2.9-3.81s-3.64,1.19-3.64,3.81v11Zm48.7-17.5A10.4,10.4,0,0,0,95.43,7a10.28,10.28,0,0,0-7.21,3.15A10.12,10.12,0,0,0,85,17.23,10.51,10.51,0,0,0,87.67,24a8.56,8.56,0,0,1-2,.56,6.41,6.41,0,0,1-1.31,0,3.8,3.8,0,0,1-2-.82,2.71,2.71,0,0,1-.74-1.95l0-10,2.63,0,0-4.32H81.52V1.3H75.86V7.39H73.25v4.35h2.61v11a4.09,4.09,0,0,0,1.84,3.82,9.91,9.91,0,0,0,4.92.85,11,11,0,0,0,6.55-1.92,9.76,9.76,0,0,0,6.42,1.92A9.84,9.84,0,0,0,103,24.56a10.16,10.16,0,0,0,3-7.44A10,10,0,0,0,102.71,9.89ZM95.56,22.16a4.83,4.83,0,1,1,4.63-4.81A4.75,4.75,0,0,1,95.56,22.16Z" transform="translate(0 0)"/><polygon points="46.24 0 51.88 0 51.88 5.65 46.24 5.69 46.24 0"/><polygon points="46.22 30.43 48.83 30.43 48.83 40 46.22 40 46.22 30.43"/><path d="M50.57,40V30.43h2.61v1.35a2.73,2.73,0,0,1,2.55-1.35,2.93,2.93,0,0,1,3.13,3.23V40H56.23V34.71c0-1.25-.34-1.82-1.39-1.82s-1.62.62-1.62,1.82V40ZM62.8,36.93V37a.92.92,0,0,0,1,.9c.6,0,.95-.3.95-.83,0-.78-.76-.74-1.94-1.11-1.64-.51-2.43-1.39-2.43-2.82C60.4,31.3,61.75,30,64,30a3,3,0,0,1,3.32,2.91H64.81c-.11-.62-.34-.88-.83-.88a.77.77,0,0,0-.87.77c0,.66.59.82,1.56,1.08,1.94.53,2.91,1.27,2.91,2.84,0,1.9-1.5,3.28-3.8,3.28a3.27,3.27,0,0,1-3.61-3.07Zm14.37-6.5V40H74.66V38.63A2.85,2.85,0,0,1,72,40a2.94,2.94,0,0,1-3.14-3.22V30.43h2.64v5.3c0,1.25.35,1.82,1.39,1.82s1.6-.62,1.6-1.82v-5.3Zm4.25,0,0,1.36a2.32,2.32,0,0,1,2.27-1.36v2.45h-.07c-1.68,0-2.11.54-2.11,2.2V40H78.92V30.43ZM91.5,38.9A3.65,3.65,0,0,1,88.72,40a4.27,4.27,0,0,1-2.93-1.1,4.88,4.88,0,0,1-.14-7.17,4.34,4.34,0,0,1,3.12-1.3,3.15,3.15,0,0,1,2.64,1.19l0-1.19h2.78V40H91.48Zm-2.17-1.4a2.21,2.21,0,0,0,2.19-2.27,2.28,2.28,0,0,0-2.29-2.35,2.31,2.31,0,1,0,.1,4.62Zm25.28-1A4.65,4.65,0,0,1,109.93,40a4.51,4.51,0,0,1-3.5-1.52A5.14,5.14,0,0,1,105.07,35a5,5,0,0,1,1.41-3.48,4.81,4.81,0,0,1,8.1,2l-2.91,0a1.76,1.76,0,0,0-1.79-.83,2.3,2.3,0,0,0,.08,4.6,1.87,1.87,0,0,0,1.71-.81ZM125.1,37a4.8,4.8,0,0,1-4.58,3,4.71,4.71,0,0,1-3.59-1.52A5,5,0,0,1,115.54,35,4.89,4.89,0,0,1,117,31.48a5,5,0,0,1,3.5-1.48c3,0,5.08,2.17,5.08,5.71l0,.35H118.4a2,2,0,0,0,2.2,1.48,2.23,2.23,0,0,0,1.5-.58Zm-2.29-3.05a2.16,2.16,0,0,0-2.29-1.38c-1.17,0-2,.48-2.2,1.38ZM95.48,40V30.43h2.6v1.35a2.75,2.75,0,0,1,2.56-1.35,2.93,2.93,0,0,1,3.12,3.23V40h-2.62V34.71c0-1.25-.35-1.82-1.39-1.82s-1.62.62-1.62,1.82V40Z" transform="translate(0 0)"/><path d="M107.63,27.39v-20h5.73v2.69A6,6,0,0,1,118.86,7c4,0,6.7,2.7,6.7,7.18l0,13.25H119.9v-11c0-2.73-.68-3.81-2.91-3.81s-3.63,1.19-3.63,3.81v11Z" transform="translate(0 0)"/><path d="M125.1,37a4.8,4.8,0,0,1-4.58,3,4.71,4.71,0,0,1-3.59-1.52A5,5,0,0,1,115.54,35,4.89,4.89,0,0,1,117,31.48a5,5,0,0,1,3.5-1.48c3,0,5.08,2.17,5.08,5.71l0,.35H118.4a2,2,0,0,0,2.2,1.48,2.23,2.23,0,0,0,1.5-.58Zm-2.29-3.05a2.16,2.16,0,0,0-2.29-1.38c-1.17,0-2,.48-2.2,1.38Z" transform="translate(0 0)"/></svg>